<svg width="50" height="50" viewBox="0 0 50 50" fill="none" xmlns="http://www.w3.org/2000/svg">
<path d="M50 25C50 38.8071 38.8071 50 25 50C11.1929 50 0 38.8071 0 25C0 11.1929 11.1929 0 25 0C38.8071 0 50 11.1929 50 25Z" fill="#1B1B1B"/>
<path d="M6.2 36C5.57333 36 5.09333 35.84 4.76 35.52C4.44 35.1867 4.28 34.7133 4.28 34.1V23.8C4.28 23.1867 4.44 22.72 4.76 22.4C5.09333 22.0667 5.57333 21.9 6.2 21.9H10.12C12.5733 21.9 14.4667 22.5133 15.8 23.74C17.1467 24.9667 17.82 26.7 17.82 28.94C17.82 30.06 17.6467 31.06 17.3 31.94C16.9533 32.8067 16.4533 33.5467 15.8 34.16C15.1467 34.76 14.34 35.22 13.38 35.54C12.4333 35.8467 11.3467 36 10.12 36H6.2ZM7.96 33.02H9.88C10.5867 33.02 11.1933 32.9333 11.7 32.76C12.22 32.5867 12.6467 32.3333 12.98 32C13.3267 31.6667 13.58 31.2467 13.74 30.74C13.9133 30.2333 14 29.6333 14 28.94C14 27.5533 13.66 26.5333 12.98 25.88C12.3 25.2133 11.2667 24.88 9.88 24.88H7.96V33.02Z" fill="white"/>
<path d="M21.9227 36C21.296 36 20.816 35.84 20.4827 35.52C20.1627 35.1867 20.0027 34.7133 20.0027 34.1V23.8C20.0027 23.1867 20.1627 22.72 20.4827 22.4C20.816 22.0667 21.296 21.9 21.9227 21.9H28.7027C29.1827 21.9 29.5427 22.02 29.7827 22.26C30.0227 22.5 30.1427 22.8467 30.1427 23.3C30.1427 23.7667 30.0227 24.1267 29.7827 24.38C29.5427 24.62 29.1827 24.74 28.7027 24.74H23.5227V27.42H28.2627C28.7293 27.42 29.0827 27.54 29.3227 27.78C29.576 28.02 29.7027 28.3733 29.7027 28.84C29.7027 29.3067 29.576 29.66 29.3227 29.9C29.0827 30.14 28.7293 30.26 28.2627 30.26H23.5227V33.16H28.7027C29.1827 33.16 29.5427 33.2867 29.7827 33.54C30.0227 33.78 30.1427 34.1267 30.1427 34.58C30.1427 35.0467 30.0227 35.4 29.7827 35.64C29.5427 35.88 29.1827 36 28.7027 36H21.9227Z" fill="white"/>
<path d="M38.4869 36.18C37.9802 36.18 37.5669 36.0733 37.2469 35.86C36.9402 35.6467 36.6802 35.3067 36.4669 34.84L31.6269 24.16C31.4135 23.6933 31.3469 23.2733 31.4269 22.9C31.5069 22.5267 31.6935 22.24 31.9869 22.04C32.2802 21.8267 32.6469 21.72 33.0869 21.72C33.6335 21.72 34.0402 21.84 34.3069 22.08C34.5869 22.32 34.8269 22.6733 35.0269 23.14L39.1069 32.58H37.9869L42.0669 23.12C42.2669 22.6533 42.5069 22.3067 42.7869 22.08C43.0669 21.84 43.4602 21.72 43.9669 21.72C44.3802 21.72 44.7269 21.8267 45.0069 22.04C45.2869 22.24 45.4602 22.5267 45.5269 22.9C45.6069 23.2733 45.5402 23.6933 45.3269 24.16L40.4669 34.84C40.2669 35.3067 40.0135 35.6467 39.7069 35.86C39.4002 36.0733 38.9935 36.18 38.4869 36.18Z" fill="white"/>
<path d="M16.8984 13.7166V12.4666L21.8984 10.2649V11.7031L18.4751 13.0774L18.5213 13.0028V13.1804L18.4751 13.1058L21.8984 14.4801V15.9183L16.8984 13.7166Z" fill="white"/>
<path d="M26.5682 8.38636L24.2244 17.0938H22.9212L25.2649 8.38636H26.5682Z" fill="white"/>
<path d="M32.5918 13.7166L27.5918 15.9183V14.4801L31.0151 13.1058L30.9689 13.1804V13.0028L31.0151 13.0774L27.5918 11.7031V10.2649L32.5918 12.4666V13.7166Z" fill="white"/>
</svg>
